HIERARCHY
ROOT joint_0
{
	OFFSET 0.000000 0.000000 0.000000
	CHANNELS 6 Xposition Yposition Zposition Zrotation Yrotation Xrotation 
	JOINT joint_1
	{
		OFFSET 6.004005 -1.946999 100.587036
		CHANNELS 3 Zrotation Yrotation Xrotation
		JOINT joint_2
		{
			OFFSET -4.601006 -0.824997 91.925903
			CHANNELS 3 Zrotation Yrotation Xrotation
			JOINT joint_3
			{
				OFFSET -5.420998 -1.130005 91.774048
				CHANNELS 3 Zrotation Yrotation Xrotation
				JOINT joint_4
				{
					OFFSET 4.308998 -3.777992 123.473999
					CHANNELS 3 Zrotation Yrotation Xrotation
					JOINT joint_5
					{
						OFFSET 25.565002 -6.305008 79.437988
						CHANNELS 3 Zrotation Yrotation Xrotation
						End Site
						{
							OFFSET 0.000000 0.000000 0.000000
						}
					}
				}
				JOINT joint_6
				{
					OFFSET -1.750000 -28.655998 68.557983
					CHANNELS 3 Zrotation Yrotation Xrotation
					JOINT joint_7
					{
						OFFSET -17.692001 -116.544006 -17.244019
						CHANNELS 3 Zrotation Yrotation Xrotation
						JOINT joint_8
						{
							OFFSET 27.063004 -23.640991 -266.895020
							CHANNELS 3 Zrotation Yrotation Xrotation
							JOINT joint_9
							{
								OFFSET 40.722000 -15.761017 -232.488953
								CHANNELS 3 Zrotation Yrotation Xrotation
								End Site
								{
									OFFSET 0.000000 0.000000 0.000000
								}
							}
						}
					}
				}
				JOINT joint_10
				{
					OFFSET 6.593002 24.457001 69.892944
					CHANNELS 3 Zrotation Yrotation Xrotation
					JOINT joint_11
					{
						OFFSET 24.311996 114.920002 -19.872925
						CHANNELS 3 Zrotation Yrotation Xrotation
						JOINT joint_12
						{
							OFFSET 21.081001 15.319000 -268.037964
							CHANNELS 3 Zrotation Yrotation Xrotation
							JOINT joint_13
							{
								OFFSET 27.794006 -8.947001 -234.744080
								CHANNELS 3 Zrotation Yrotation Xrotation
								End Site
								{
									OFFSET 0.000000 0.000000 0.000000
								}
							}
						}
					}
				}
			}
		}
	}
	JOINT joint_14
	{
		OFFSET -6.627998 -80.520004 -98.790039
		CHANNELS 3 Zrotation Yrotation Xrotation
		JOINT joint_15
		{
			OFFSET -43.638000 -13.751999 -502.538971
			CHANNELS 3 Zrotation Yrotation Xrotation
			JOINT joint_16
			{
				OFFSET -39.532999 -9.912994 -398.071007
				CHANNELS 3 Zrotation Yrotation Xrotation
				JOINT joint_17
				{
					OFFSET 174.940004 -34.660995 -75.688002
					CHANNELS 3 Zrotation Yrotation Xrotation
					End Site
					{
						OFFSET 0.000000 0.000000 0.000000
					}
				}
			}
		}
	}
	JOINT joint_18
	{
		OFFSET 12.591003 79.842003 -98.765015
		CHANNELS 3 Zrotation Yrotation Xrotation
		JOINT joint_19
		{
			OFFSET -39.080002 -1.297001 -503.101013
			CHANNELS 3 Zrotation Yrotation Xrotation
			JOINT joint_20
			{
				OFFSET -51.570000 -0.514000 -396.815987
				CHANNELS 3 Zrotation Yrotation Xrotation
				JOINT joint_21
				{
					OFFSET 178.987999 -11.521999 -73.244003
					CHANNELS 3 Zrotation Yrotation Xrotation
					End Site
					{
						OFFSET 0.000000 0.000000 0.000000
					}
				}
			}
		}
	}
}
MOTION
Frames: 7
Frame Time: 0.016667
181.824010 -165.786000 1097.368040 -6.362436 1.039425 -1.162270 0.408669 -4.522974 -1.864638 0.327218 0.619684 0.360696 0.251346 -0.988702 -0.355907 -0.232290 6.615876 2.720437 0.000000 0.000000 0.000000 -1.444958 2.576734 -2.330322 -0.277028 2.263507 -1.995528 1.710560 -22.062727 -1.976974 0.000000 0.000000 0.000000 4.065585 2.256053 5.386060 0.527441 2.640349 0.716689 0.142461 -3.269981 0.183513 0.000000 0.000000 0.000000 0.651741 -2.092373 1.038419 0.091080 18.543242 0.727228 0.214652 -4.788688 -0.850438 0.000000 0.000000 0.000000 2.696952 -6.326387 3.463595 2.437606 24.997350 4.596850 2.855504 -2.645835 0.919711 0.000000 0.000000 0.000000 
187.261000 -167.528000 1097.302000 -6.601472 0.874067 -1.279472 0.357541 -4.182820 -1.650782 0.246064 0.594517 0.308738 0.175932 -0.925616 -0.308113 -0.257813 6.421402 2.760959 0.000000 0.000000 0.000000 -1.326220 2.615705 -2.325739 -0.243996 2.328154 -2.113891 1.795401 -22.639594 -2.012536 0.000000 0.000000 0.000000 3.983770 2.239269 5.202551 0.566971 2.586111 0.818430 0.155060 -3.639795 0.162119 0.000000 0.000000 0.000000 0.765929 -1.857320 1.224011 0.222085 19.022357 0.698938 0.305742 -4.695016 -0.794442 0.000000 0.000000 0.000000 2.753478 -6.628516 3.548990 2.441971 26.596369 4.965315 2.849278 -2.423299 0.922332 0.000000 0.000000 0.000000 
192.813000 -169.300000 1097.374020 -6.861238 0.730275 -1.385362 0.351706 -3.875847 -1.451171 0.202710 0.553691 0.271994 0.136342 -0.848521 -0.269973 -0.283102 6.253737 2.801631 0.000000 0.000000 0.000000 -1.264354 2.614419 -2.246084 -0.222500 2.367066 -2.264937 1.838761 -22.708625 -1.988028 0.000000 0.000000 0.000000 3.880388 2.210599 5.009585 0.595112 2.525959 0.888496 0.167521 -3.894395 0.173134 0.000000 0.000000 0.000000 0.911672 -1.672149 1.369249 0.372062 19.551516 0.725729 0.412344 -4.553886 -0.723158 0.000000 0.000000 0.000000 2.844769 -7.190888 3.641418 2.456751 28.636632 5.358808 2.838477 -2.206306 0.920173 0.000000 0.000000 0.000000 
198.448000 -171.089000 1097.512940 -7.126916 0.590741 -1.508962 0.374574 -3.563113 -1.199190 0.184902 0.501724 0.222144 0.123461 -0.754412 -0.236190 -0.310785 6.066550 2.836893 0.000000 0.000000 0.000000 -1.225786 2.576364 -2.095323 -0.218253 2.391748 -2.472862 1.843896 -22.343149 -1.899810 0.000000 0.000000 0.000000 3.736630 2.171622 4.790052 0.614490 2.457047 0.948765 0.178237 -4.057768 0.196521 0.000000 0.000000 0.000000 1.078828 -1.503089 1.512690 0.539291 20.099313 0.795690 0.533535 -4.365552 -0.637235 0.000000 0.000000 0.000000 2.964954 -7.937880 3.766354 2.473766 30.999779 5.781113 2.811890 -1.932023 0.912739 0.000000 0.000000 0.000000 
204.074010 -172.815990 1097.613040 -7.296611 0.442720 -1.602433 0.403295 -3.198078 -0.978115 0.171477 0.440752 0.187426 0.114128 -0.653985 -0.194928 -0.342039 5.854405 2.869271 0.000000 0.000000 0.000000 -1.208349 2.534321 -1.962754 -0.224935 2.398877 -2.603833 1.804341 -21.691278 -1.853834 0.000000 0.000000 0.000000 3.574036 2.105532 4.565926 0.625613 2.372648 0.955743 0.192259 -4.167153 0.265513 0.000000 0.000000 0.000000 1.229737 -1.324130 1.616769 0.685188 20.664611 0.897538 0.630754 -4.182978 -0.562799 0.000000 0.000000 0.000000 3.145419 -9.018658 3.839151 2.491300 33.876268 6.307563 2.802859 -1.566647 0.913048 0.000000 0.000000 0.000000 
209.592000 -174.464000 1097.646970 -7.274551 0.286707 -1.657297 0.415283 -2.764646 -0.789964 0.140844 0.386160 0.158965 0.086830 -0.561616 -0.141861 -0.379218 5.612567 2.905284 0.000000 0.000000 0.000000 -1.217488 2.503730 -1.906319 -0.237452 2.376780 -2.551728 1.708214 -20.784721 -1.932788 0.000000 0.000000 0.000000 3.400312 1.996828 4.355719 0.627089 2.270182 0.859493 0.215914 -4.232515 0.431716 0.000000 0.000000 0.000000 1.330574 -1.136456 1.685533 0.777441 21.260306 1.028533 0.668566 -4.015371 -0.515924 0.000000 0.000000 0.000000 3.421729 -10.604138 3.818871 2.494617 37.478630 7.022477 2.853767 -0.976869 0.941625 0.000000 0.000000 0.000000 
215.035000 -176.064000 1097.654050 -7.123700 0.125989 -1.735851 0.414390 -2.278133 -0.507707 0.111105 0.333782 0.079088 0.066704 -0.471161 -0.082535 -0.421338 5.339073 2.942572 0.000000 0.000000 0.000000 -1.252934 2.466519 -1.878580 -0.259339 2.324986 -2.382484 1.556503 -19.558665 -2.097677 0.000000 0.000000 0.000000 3.208021 1.851589 4.150236 0.618440 2.151520 0.676474 0.247109 -4.239688 0.682129 0.000000 0.000000 0.000000 1.398300 -0.952236 1.783878 0.842505 21.882111 1.185704 0.668092 -3.819883 -0.479629 0.000000 0.000000 0.000000 3.812111 -12.611314 3.763072 2.472633 41.630347 7.913407 2.980327 -0.010288 1.010623 0.000000 0.000000 0.000000 
